<svg width="192" height="192" viewBox="0 0 192 192" fill="none" xmlns="http://www.w3.org/2000/svg">
  <circle cx="96" cy="96" r="96" fill="#1A1A1F"/>
  <path d="M71.0146 81.3384C70.143 84.6615 69.0536 88.1076 67.7462 91.6769C66.5011 95.2461 65.1938 98.6307 63.8242 101.831C63.7619 101.954 63.6063 102.261 63.3573 102.754C63.1083 103.185 62.9215 103.369 62.797 103.308C62.6102 103.308 62.5168 103.061 62.5168 102.569C62.5791 102.015 62.6413 101.646 62.7036 101.461C62.7659 100.723 62.8904 99.7999 63.0771 98.6923C63.2639 97.5846 63.4507 96.4461 63.6374 95.2769C63.8864 94.1076 64.1355 92.9692 64.3845 91.8615C64.6957 90.7538 64.9759 89.7999 65.2249 88.9999C65.3494 88.7538 65.5362 88.1384 65.7852 87.1538C66.0342 86.1692 66.2832 84.9999 66.5323 83.6461C66.8435 82.2307 67.1548 80.6923 67.4661 79.0307C67.7773 77.3692 68.0575 75.7384 68.3065 74.1384L67.1859 73.8615C66.8747 76.0153 66.4077 78.2307 65.7852 80.5076C65.2249 82.723 64.5712 84.9692 63.8242 87.2461C63.1394 89.4615 62.4546 91.7384 61.7698 94.0769C61.085 96.3538 60.4624 98.6307 59.9021 100.908C59.4041 103.061 59.0306 105.308 58.7816 107.646C58.5325 109.985 58.4392 112.354 58.5014 114.754C58.5637 117.092 58.8438 119.4 59.3419 121.677C59.8399 123.892 60.5869 125.954 61.583 127.861C61.7698 128.292 61.832 128.508 61.7698 128.508C61.6453 128.508 61.5519 128.477 61.4896 128.415L61.3029 128.231C59.5597 126.2 58.2524 124.015 57.3808 121.677C56.5715 119.277 56.0424 116.815 55.7933 114.292C55.6066 111.769 55.6688 109.215 55.9801 106.631C56.2914 104.046 56.7272 101.523 57.2875 99.0615C58.3458 94.5076 59.5909 90.1384 61.0227 85.9538C62.4546 81.7076 63.6685 77.5538 64.6646 73.4923C60.9293 72.8769 57.412 72.323 54.1125 71.8307C50.8752 71.2769 47.8559 71.2769 45.0544 71.8307C44.8677 71.8307 44.7743 71.7999 44.7743 71.7384C44.7743 71.6153 44.8054 71.5538 44.8677 71.5538C44.9922 71.4923 45.0856 71.4307 45.1478 71.3692C47.2645 70.1384 49.5056 69.4615 51.8713 69.3384C54.2992 69.2153 56.7894 69.3384 59.3419 69.7076C61.9565 70.0153 64.6024 70.4461 67.2793 70.9999C70.0185 71.4923 72.7577 71.7692 75.4969 71.8307C77.1778 71.8923 78.9209 71.7692 80.7263 71.4615C82.5939 71.0923 84.3682 70.5692 86.0491 69.8923C87.7922 69.1538 89.3485 68.1999 90.7181 67.0307C92.15 65.8615 93.3017 64.4769 94.1733 62.8769C94.2978 62.5692 94.4223 62.4153 94.5468 62.4153V62.6923V62.8769C93.862 65.2153 92.8037 67.1538 91.3718 68.6923C89.94 70.1692 88.2902 71.3692 86.4226 72.2923C84.6172 73.2153 82.6562 73.8615 80.5395 74.2307C78.4851 74.5384 76.4619 74.6615 74.4697 74.5999C74.781 76.5076 74.781 78.723 74.4697 81.2461C74.2207 83.7692 73.816 86.323 73.2557 88.9076C72.6955 91.4923 72.104 93.9538 71.4815 96.2923C70.8589 98.5692 70.3609 100.415 69.9874 101.831C69.2403 104.785 68.3688 107.8 67.3727 110.877C66.3766 113.954 65.4739 116.661 64.6646 119C64.5401 119.308 64.3845 119.585 64.1977 119.831C64.0732 120.077 63.9487 120.169 63.8242 120.108C63.6997 120.046 63.6374 119.892 63.6374 119.646C63.6997 119.338 63.7308 119.031 63.7308 118.723C63.9176 114.108 64.6024 109.492 65.7852 104.877C66.968 100.261 68.2443 95.6153 69.6139 90.9384C70.3609 88.3538 71.0768 85.7384 71.7616 83.0923C72.5087 80.4461 73.0379 77.6153 73.3491 74.5999C73.0379 74.5384 72.7577 74.5076 72.5087 74.5076C72.3219 74.5076 72.0729 74.5076 71.7616 74.5076C71.7616 75.7384 71.6994 76.9384 71.5749 78.1076C71.5126 79.2769 71.3259 80.3538 71.0146 81.3384ZM73.5359 61.6769C75.9638 61.9846 78.4229 62.2307 80.9131 62.4153C83.4032 62.5999 85.551 62.6923 87.3564 62.6923C87.9789 62.6923 88.2902 62.7846 88.2902 62.9692C88.2902 63.2153 87.9789 63.4307 87.3564 63.6153C84.1814 64.8461 80.8197 65.3999 77.2712 65.2769C73.7849 65.1538 70.2364 64.8153 66.6256 64.2615C64.4467 63.9538 62.2056 63.6461 59.9021 63.3384C57.5987 63.0307 55.1085 63.0307 52.4316 63.3384C52.1826 63.3999 52.0581 63.3692 52.0581 63.2461C52.0581 63.123 52.1203 63.0307 52.2448 62.9692C52.3693 62.9076 52.4939 62.8153 52.6184 62.6923C53.8012 61.8307 55.3264 61.2769 57.1941 61.0307C59.0617 60.723 60.9916 60.5999 62.9837 60.6615C65.0381 60.6615 66.9992 60.7846 68.8668 61.0307C70.7344 61.2769 72.2908 61.4923 73.5359 61.6769ZM59.5286 64.5384C62.1433 64.9076 64.7891 65.3692 67.4661 65.923C70.2053 66.4769 72.8511 67.0923 75.4035 67.7692C75.528 67.8923 75.7771 68.0153 76.1506 68.1384C76.5864 68.1999 76.8043 68.323 76.8043 68.5076C76.8043 68.6307 76.6175 68.723 76.244 68.7846C75.8704 68.8461 75.5903 68.9384 75.4035 69.0615C74.8432 69.1846 74.1273 69.2461 73.2557 69.2461C72.4464 69.2461 71.5749 69.2461 70.6411 69.2461C69.7695 69.1846 68.8979 69.123 68.0264 69.0615C67.1548 68.9999 66.4077 68.9076 65.7852 68.7846C65.3494 68.723 64.26 68.5999 62.5168 68.4153C60.836 68.2307 58.9683 68.1076 56.9139 68.0461C54.8595 67.9846 52.8674 68.0153 50.9375 68.1384C49.0699 68.1999 47.7314 68.4461 46.9221 68.8769C46.6731 68.9999 46.5174 69.0615 46.4552 69.0615H46.3618C46.3618 68.8153 46.4863 68.5692 46.7353 68.323C47.3579 67.523 48.1983 66.8461 49.2566 66.2923C50.3772 65.7384 51.5289 65.3076 52.7117 64.9999C53.8946 64.6923 55.0774 64.5076 56.2603 64.4461C57.5053 64.3846 58.5948 64.4153 59.5286 64.5384ZM62.6102 121.677C62.797 122.723 63.0149 123.769 63.2639 124.815C63.5752 125.861 63.9487 126.877 64.3845 127.861C64.6335 128.354 64.6646 128.6 64.4779 128.6C64.3533 128.6 64.1666 128.538 63.9176 128.415C63.7931 128.354 63.6997 128.261 63.6374 128.138C62.8281 127.215 62.1744 126.354 61.6764 125.554C61.2406 124.754 60.8671 123.461 60.5558 121.677C60.4313 121 60.3379 120.138 60.2757 119.092C60.2757 118.046 60.3068 117.031 60.3691 116.046C60.4313 115.061 60.5247 114.231 60.6492 113.554C60.7737 112.877 60.9605 112.538 61.2095 112.538C61.2717 112.538 61.334 112.692 61.3963 113C61.5208 113.308 61.6141 113.677 61.6764 114.108C61.7387 114.477 61.8009 114.877 61.8632 115.308C61.9254 115.677 61.9565 115.923 61.9565 116.046C62.0811 117.092 62.1744 118.077 62.2367 119C62.3612 119.923 62.4857 120.815 62.6102 121.677ZM89.6909 63.8923C91.0605 62.723 92.2123 61.4615 93.1461 60.1076C93.2706 59.8615 93.3951 59.7384 93.5196 59.7384C93.5819 59.7384 93.613 59.9538 93.613 60.3846C93.613 60.6307 93.5819 60.8461 93.5196 61.0307C93.2706 62.0769 92.9904 62.9076 92.6792 63.523C92.3679 64.1384 91.6208 64.8769 90.438 65.7384C90.0022 66.1076 89.4108 66.4769 88.6637 66.8461C87.9167 67.1538 87.2008 67.4307 86.516 67.6769C85.8312 67.923 85.2086 68.0769 84.6483 68.1384C84.1503 68.1384 83.8701 68.0153 83.8079 67.7692C83.8079 67.7076 83.9013 67.6153 84.088 67.4923C84.2748 67.3076 84.4927 67.123 84.7417 66.9384C85.053 66.7538 85.3331 66.5999 85.5821 66.4769C85.8312 66.2923 86.0179 66.1692 86.1424 66.1076C86.765 65.7999 87.3564 65.4615 87.9167 65.0923C88.5392 64.723 89.1307 64.323 89.6909 63.8923ZM106.887 61.4923C106.638 60.9384 106.576 60.6615 106.7 60.6615C106.887 60.6615 107.105 60.8153 107.354 61.123C107.603 61.3692 107.759 61.523 107.821 61.5846C108.443 62.5076 109.128 63.523 109.875 64.6307C110.622 65.6769 111.338 66.9384 112.023 68.4153C112.708 69.8923 113.33 71.6153 113.891 73.5846C114.451 75.4923 114.887 77.7692 115.198 80.4153C115.572 83.4307 115.634 86.4153 115.385 89.3692C115.198 92.2615 114.856 95.1846 114.358 98.1384C114.295 98.2615 114.233 98.5692 114.171 99.0615C114.109 99.5538 113.984 99.7999 113.797 99.7999C113.673 99.7999 113.548 99.5846 113.424 99.1538C113.299 98.6615 113.237 98.323 113.237 98.1384C113.112 97.4615 112.988 96.6615 112.863 95.7384C112.739 94.8153 112.614 93.8615 112.49 92.8769C112.428 91.8307 112.365 90.8461 112.303 89.923C112.303 88.9384 112.303 88.0769 112.303 87.3384C112.303 87.0923 112.272 86.5692 112.21 85.7692C112.21 84.9076 112.179 83.923 112.116 82.8153C112.054 81.7076 111.93 80.5076 111.743 79.2153C111.618 77.8615 111.463 76.5384 111.276 75.2461C111.4 77.1538 111.4 79.0615 111.276 80.9692C111.151 82.8769 110.996 84.8153 110.809 86.7846C110.622 88.6923 110.467 90.6307 110.342 92.5999C110.218 94.5076 110.218 96.4461 110.342 98.4153C110.529 102.231 111.307 106.108 112.677 110.046C114.046 113.985 116.225 117.338 119.213 120.108C119.587 120.477 119.743 120.661 119.68 120.661C119.556 120.723 119.338 120.661 119.027 120.477C116.848 119.246 115.042 117.769 113.611 116.046C112.179 114.323 110.996 112.446 110.062 110.415C109.19 108.385 108.537 106.292 108.101 104.138C107.665 101.923 107.416 99.7076 107.354 97.4923C107.354 97.3076 107.323 97.1538 107.261 97.0307C107.261 96.8461 107.261 96.6615 107.261 96.4769C106.015 99.9846 104.615 103.369 103.058 106.631C101.564 109.892 100.07 113.031 98.576 116.046C97.1442 119.061 95.7746 121.923 94.4672 124.631C93.2221 127.277 92.2261 129.738 91.479 132.015C91.3545 132.323 91.2611 132.477 91.1989 132.477C91.0744 132.477 91.0121 132.385 91.0121 132.2C91.0121 132.015 91.0121 131.892 91.0121 131.831C91.0744 128.938 91.6658 125.923 92.7864 122.785C93.9069 119.585 95.2143 116.292 96.7084 112.908C98.2648 109.461 99.8834 105.954 101.564 102.385C103.245 98.7538 104.708 95.0615 105.953 91.3076C106.7 88.9076 107.323 86.4153 107.821 83.8307C108.381 81.2461 108.724 78.6615 108.848 76.0769C108.973 73.4923 108.879 70.9692 108.568 68.5076C108.257 65.9846 107.696 63.6461 106.887 61.4923ZM118.466 114.661C119.151 116.077 120.054 117.4 121.174 118.631C121.61 116.046 122.451 113.492 123.696 110.969C124.941 108.385 126.342 105.8 127.898 103.215C129.517 100.631 131.197 98.0461 132.941 95.4615C134.684 92.8769 136.302 90.2615 137.796 87.6153C138.917 85.7076 139.851 83.6461 140.598 81.4307C141.407 79.2153 141.967 76.9692 142.279 74.6923C142.652 72.3538 142.746 70.0461 142.559 67.7692C142.434 65.4923 141.967 63.3384 141.158 61.3076C140.971 60.9999 140.94 60.7846 141.065 60.6615C141.189 60.5384 141.376 60.6307 141.625 60.9384C141.936 61.1846 142.123 61.3692 142.185 61.4923C142.932 62.5384 143.524 63.923 143.96 65.6461C144.458 67.3076 144.8 69.1846 144.987 71.2769C145.236 73.3076 145.36 75.4615 145.36 77.7384C145.36 80.0153 145.267 82.2923 145.08 84.5692C144.831 87.5846 144.364 90.8769 143.679 94.4461C143.057 98.0153 142.279 101.277 141.345 104.231C141.283 104.354 141.158 104.631 140.971 105.061C140.847 105.492 140.691 105.708 140.504 105.708C140.38 105.646 140.287 105.4 140.224 104.969C140.162 104.477 140.131 104.169 140.131 104.046C140.131 103.369 140.131 102.569 140.131 101.646C140.193 100.661 140.255 99.6769 140.318 98.6923C140.38 97.6461 140.442 96.6615 140.504 95.7384C140.629 94.7538 140.753 93.923 140.878 93.2461C140.94 92.8769 141.034 92.0461 141.158 90.7538C141.345 89.3999 141.501 87.8923 141.625 86.2307C140.878 87.9538 140.287 89.4923 139.851 90.8461C139.415 92.1999 139.041 93.523 138.73 94.8153C138.419 96.1076 138.139 97.4615 137.89 98.8769C137.703 100.292 137.516 101.954 137.329 103.861C137.143 105.769 137.049 107.769 137.049 109.861C137.112 111.954 137.329 114.015 137.703 116.046C138.139 118.077 138.73 120.077 139.477 122.046C140.287 123.954 141.314 125.708 142.559 127.308C142.808 127.677 142.87 127.892 142.746 127.954C142.621 128.015 142.465 127.954 142.279 127.769C140.287 126.169 138.699 124.385 137.516 122.415C136.396 120.385 135.555 118.261 134.995 116.046C134.435 113.831 134.123 111.585 134.061 109.308C134.061 106.969 134.186 104.692 134.435 102.477C134.559 101.677 134.653 100.877 134.715 100.077C134.839 99.2769 134.964 98.4461 135.088 97.5846C133.656 99.8615 132.225 102.077 130.793 104.231C129.361 106.385 128.022 108.538 126.777 110.692C125.532 112.785 124.412 114.877 123.416 116.969C122.482 119 121.766 121.031 121.268 123.061C121.143 123.369 121.081 123.523 121.081 123.523C120.957 123.523 120.894 123.4 120.894 123.154C120.894 122.908 120.894 122.754 120.894 122.692C120.894 122.2 120.894 121.708 120.894 121.215C120.894 120.723 120.957 120.231 121.081 119.738C120.583 119.492 120.147 119.277 119.774 119.092C119.4 118.846 119.027 118.569 118.653 118.261C118.342 117.954 117.999 117.585 117.626 117.154C117.315 116.723 116.972 116.169 116.599 115.492C116.287 114.877 115.976 114.138 115.665 113.277C115.354 112.415 115.073 111.585 114.824 110.785C114.638 109.923 114.513 109.215 114.451 108.661C114.451 108.046 114.544 107.738 114.731 107.738C114.856 107.738 114.98 107.861 115.105 108.108C115.291 108.292 115.478 108.538 115.665 108.846C115.852 109.154 116.007 109.461 116.132 109.769C116.256 110.077 116.35 110.292 116.412 110.415C116.723 111.154 117.035 111.892 117.346 112.631C117.719 113.308 118.093 113.985 118.466 114.661ZM120.427 97.5846C121.797 94.9384 123.198 92.3846 124.63 89.923C126.124 87.3999 127.307 85.3999 128.178 83.923C129.672 81.2769 131.229 78.6923 132.847 76.1692C134.466 73.5846 135.867 71.3076 137.049 69.3384C137.174 69.0307 137.298 68.7538 137.423 68.5076C137.61 68.2615 137.765 68.1999 137.89 68.323C138.014 68.323 138.045 68.4769 137.983 68.7846C137.921 69.0923 137.859 69.3999 137.796 69.7076C136.925 74.1384 135.337 78.323 133.034 82.2615C130.793 86.1999 128.427 90.1692 125.937 94.1692C125.065 95.523 124.287 96.6615 123.602 97.5846C122.98 98.4461 122.42 99.3076 121.921 100.169C121.486 100.969 121.112 101.861 120.801 102.846C120.49 103.831 120.272 105.092 120.147 106.631C120.396 105.954 120.676 105.308 120.988 104.692C121.299 104.077 121.61 103.492 121.921 102.938C123.665 99.9846 125.626 97.0307 127.805 94.0769C129.983 91.123 132.131 88.3538 134.248 85.7692C134.372 85.6461 134.59 85.3999 134.902 85.0307C135.275 84.5999 135.524 84.4153 135.649 84.4769C135.773 84.5384 135.742 84.8153 135.555 85.3076C135.431 85.7999 135.337 86.1692 135.275 86.4153C134.964 87.0923 134.559 87.923 134.061 88.9076C133.625 89.8923 133.127 90.9076 132.567 91.9538C132.069 92.9384 131.54 93.923 130.98 94.9076C130.419 95.8307 129.921 96.5999 129.485 97.2153C129.236 97.5846 128.707 98.323 127.898 99.4307C127.089 100.538 126.217 101.923 125.283 103.585C124.349 105.246 123.416 107.123 122.482 109.215C121.61 111.308 120.957 113.523 120.521 115.861C120.334 115.492 120.085 115.031 119.774 114.477C119.525 113.923 119.213 113.031 118.84 111.8C117.719 107.923 117.097 104.015 116.972 100.077C116.91 96.0769 116.91 91.9846 116.972 87.7999C117.035 85.1538 117.035 82.5076 116.972 79.8615C116.972 77.2153 116.536 74.4153 115.665 71.4615C115.603 71.2153 115.603 71.0307 115.665 70.9076C115.789 70.9076 115.976 71.0923 116.225 71.4615C117.346 72.6307 118.186 74.3538 118.747 76.6307C119.307 78.8461 119.711 81.2153 119.96 83.7384C120.209 86.1999 120.334 88.6307 120.334 91.0307C120.396 93.3692 120.427 95.2461 120.427 96.6615V97.5846ZM95.868 89.5538C96.9263 86.3538 98.1091 83.123 99.4165 79.8615C100.786 76.5999 101.969 73.6769 102.965 71.0923C103.089 70.7846 103.214 70.4769 103.339 70.1692C103.525 69.8615 103.681 69.7384 103.805 69.7999C103.93 69.7999 103.961 70.0153 103.899 70.4461C103.899 70.8153 103.899 71.1538 103.899 71.4615C103.339 76.5076 102.218 81.523 100.537 86.5076C98.8562 91.4923 96.9885 96.4153 94.9341 101.277C93.689 104.354 92.3506 107.461 90.9187 110.6C89.4869 113.677 88.304 117.031 87.3702 120.661C87.2457 120.969 87.1834 121.154 87.1834 121.215C87.2457 121.277 87.2457 121.308 87.1834 121.308C86.9967 121.185 86.9033 120.908 86.9033 120.477C86.592 118.631 86.7788 116.323 87.4636 113.554C88.1484 110.723 89.02 107.831 90.0783 104.877C91.1366 101.861 92.2261 98.9999 93.3466 96.2923C94.4672 93.523 95.3077 91.2769 95.868 89.5538ZM91.8525 111.523C93.4089 108.015 95.0898 104.415 96.8952 100.723C98.7005 96.9692 100.444 93.3999 102.125 90.0153C102.187 89.8307 102.342 89.4923 102.591 88.9999C102.903 88.5076 103.183 88.2923 103.432 88.3538C103.556 88.3538 103.588 88.6307 103.525 89.1846C103.463 89.7384 103.37 90.1384 103.245 90.3846C103.058 91.2461 102.809 92.2923 102.498 93.523C102.187 94.6923 101.813 95.923 101.377 97.2153C101.004 98.4461 100.599 99.6769 100.164 100.908C99.7277 102.077 99.3231 103.061 98.9496 103.861C98.7628 104.231 98.4204 105.031 97.9224 106.261C97.4866 107.431 96.9263 108.846 96.2415 110.508C95.6189 112.169 94.9341 113.954 94.1871 115.861C93.5023 117.708 92.8486 119.492 92.2261 121.215C91.6035 122.877 91.0432 124.385 90.5452 125.738C90.1094 127.031 89.8604 127.954 89.7981 128.508C89.6736 129.123 89.5491 129.431 89.4246 129.431C89.3001 129.431 89.2067 129.308 89.1445 129.061C89.1445 128.815 89.1133 128.631 89.0511 128.508C88.7398 127.769 88.5842 126.692 88.5842 125.277C88.6464 123.861 88.8332 122.354 89.1445 120.754C89.4557 119.154 89.8293 117.523 90.265 115.861C90.7631 114.2 91.2922 112.754 91.8525 111.523ZM147.508 103.585C147.197 106.354 146.699 109.123 146.014 111.892C145.391 114.661 144.831 117.123 144.333 119.277C144.084 120.077 143.897 120.446 143.773 120.385C143.648 120.385 143.555 120.261 143.493 120.015C143.493 119.708 143.462 119.4 143.399 119.092C142.901 114.969 142.964 110.846 143.586 106.723C144.209 102.6 144.893 98.3846 145.64 94.0769C146.139 91.4923 146.543 88.8461 146.854 86.1384C147.166 83.3692 147.166 80.4153 146.854 77.2769C146.854 77.0307 146.917 76.8461 147.041 76.723C147.166 76.723 147.228 76.8153 147.228 76.9999C147.29 77.123 147.384 77.2153 147.508 77.2769C148.442 78.6307 148.971 80.5076 149.096 82.9076C149.282 85.2461 149.282 87.7076 149.096 90.2923C148.909 92.8769 148.629 95.3692 148.255 97.7692C147.944 100.169 147.695 102.108 147.508 103.585ZM105.206 68.323C105.082 67.0307 104.895 65.8307 104.646 64.723C104.459 63.6153 104.21 62.4769 103.899 61.3076C103.837 61.1846 103.805 61.0307 103.805 60.8461C103.805 60.6615 103.837 60.5692 103.899 60.5692C104.086 60.5692 104.272 60.6615 104.459 60.8461L104.833 61.2153C105.517 62.1384 106.078 63.0615 106.513 63.9846C106.949 64.8461 107.229 66.2923 107.354 68.323C107.416 69.123 107.416 70.1076 107.354 71.2769C107.292 72.4461 107.167 73.5538 106.98 74.5999C106.856 75.6461 106.669 76.5384 106.42 77.2769C106.233 78.0153 106.047 78.3538 105.86 78.2923C105.735 78.2923 105.642 78.1384 105.58 77.8307C105.517 77.4615 105.455 77.0615 105.393 76.6307C105.393 76.1999 105.393 75.7692 105.393 75.3384C105.393 74.8461 105.393 74.5076 105.393 74.323C105.393 73.2769 105.393 72.2923 105.393 71.3692C105.393 70.3846 105.331 69.3692 105.206 68.323ZM139.384 67.123C139.322 66.0153 139.197 64.9692 139.01 63.9846C138.886 62.9999 138.668 61.9846 138.357 60.9384C138.294 60.8153 138.232 60.6615 138.17 60.4769C138.17 60.2922 138.232 60.2307 138.357 60.2922C138.481 60.4153 138.575 60.5076 138.637 60.5692C138.761 60.6307 138.886 60.6922 139.01 60.7538L139.197 60.9384C139.882 61.7999 140.411 62.6307 140.785 63.4307C141.22 64.2307 141.469 65.5538 141.532 67.3999C141.532 68.0769 141.438 68.9384 141.252 69.9846C141.127 71.0307 140.94 72.0461 140.691 73.0307C140.504 73.9538 140.255 74.7538 139.944 75.4307C139.695 76.0461 139.446 76.2923 139.197 76.1692C139.073 76.1076 139.01 75.923 139.01 75.6153C139.01 75.2461 139.01 74.8769 139.01 74.5076C139.01 74.0769 139.041 73.6769 139.104 73.3076C139.166 72.9384 139.197 72.6615 139.197 72.4769C139.322 71.4923 139.384 70.5692 139.384 69.7076C139.446 68.8461 139.446 67.9846 139.384 67.123ZM142.652 121.769C143.026 122.815 143.43 123.769 143.866 124.631C144.364 125.492 144.862 126.354 145.36 127.215C145.423 127.277 145.485 127.4 145.547 127.585C145.609 127.708 145.578 127.769 145.454 127.769C145.267 127.769 145.111 127.738 144.987 127.677C144.925 127.615 144.831 127.554 144.707 127.492C144.582 127.431 144.489 127.369 144.427 127.308C143.555 126.631 142.839 125.985 142.279 125.369C141.718 124.754 141.158 123.646 140.598 122.046C140.411 121.431 140.224 120.661 140.038 119.738C139.851 118.815 139.726 117.923 139.664 117.061C139.602 116.2 139.602 115.461 139.664 114.846C139.726 114.231 139.882 113.923 140.131 113.923C140.193 113.923 140.287 114.077 140.411 114.385C140.536 114.631 140.629 114.938 140.691 115.308C140.816 115.615 140.909 115.954 140.971 116.323C141.096 116.631 141.189 116.846 141.252 116.969C141.563 117.831 141.812 118.661 141.999 119.461C142.185 120.261 142.403 121.031 142.652 121.769Z" fill="#F2C94C"/>
</svg>